<svg xmlns="http://www.w3.org/2000/svg" xmlns:xlink="http://www.w3.org/1999/xlink" width="220" height="220" viewBox="0 0 220 220">
  <defs>
    <clipPath id="clip-path">
      <rect id="Rectangle_48" data-name="Rectangle 48" width="220" height="220" fill="none"/>
    </clipPath>
  </defs>
  <g id="Tile_Diesel" transform="translate(110 110)" opacity="0.85">
    <g id="Group_19" data-name="Group 19" transform="translate(-110 -110)" clip-path="url(#clip-path)">
      <path id="Path_159" data-name="Path 159" d="M220,0H0V220H220ZM140.8,157.63h4.18v15.4h7.92v2.86H140.8Zm-15.4,0h12.21v2.86h-8.03V165h7.7v2.75h-7.7v5.28h8.14v2.86H125.4Zm-16.17,17.71.55-2.86a28.928,28.928,0,0,0,4.62.66c1.54,0,3.85-.44,3.85-2.31s-.55-1.65-2.75-2.2-6.16-1.65-6.16-5.72,2.53-5.61,6.6-5.61a23.979,23.979,0,0,1,5.83.88l-.66,2.75a29.587,29.587,0,0,0-4.4-.55c-1.43,0-3.3.44-3.3,2.2s.77,1.65,2.64,2.09c3.63.77,6.27,1.54,6.27,5.5s-2.64,6.05-7.37,6.05a20.791,20.791,0,0,1-5.72-.88M95.04,157.63h12.21v2.86H99.22V165h7.7v2.75h-7.7v5.28h8.14v2.86H95.04Zm-8.14,0h4.18V176H86.9Zm-18.15,0H74.8c3.3,0,5.06.44,6.49,1.87a10.652,10.652,0,0,1,2.53,7.26c0,3.08-1.21,6.6-3.63,8.14s-2.86,1.1-6.27,1.1H68.86V157.63Zm85.36-46.31a9.13,9.13,0,0,1-18.26,0V78.65a5.83,5.83,0,0,0-5.83-5.83h-4.95V137.5H65.89V45.43h59.18V70.62h4.95a8.14,8.14,0,0,1,8.14,8.14v32.67a6.71,6.71,0,0,0,6.49,6.49,6.93,6.93,0,0,0,7.15-6.49V61.93L133.43,45.87l1.54-1.76,19.14,16.72ZM68.2,135.19h54.56V47.74H68.2Zm9.46-77h35.75V85.25H77.66Zm2.31,24.75H111.1V60.5H79.97ZM78.1,161.81c-.88-.99-2.09-1.32-4.29-1.32h-.88v12.43h.66c2.31,0,3.3-.22,4.18-.88s1.76-2.75,1.76-5.28-.55-3.96-1.43-4.95" fill="#fff"/>
    </g>
  </g>
</svg>
