<svg id="Tile_Electric" xmlns="http://www.w3.org/2000/svg" xmlns:xlink="http://www.w3.org/1999/xlink" width="220" height="220" viewBox="0 0 220 220">
  <defs>
    <clipPath id="clip-path">
      <rect id="Rectangle_49" data-name="Rectangle 49" width="220" height="220" fill="none"/>
    </clipPath>
  </defs>
  <g id="Tile_Electric-2" data-name="Tile_Electric" transform="translate(110 110)" opacity="0.85">
    <g id="Group_20" data-name="Group 20" transform="translate(-110 -110)" clip-path="url(#clip-path)">
      <path id="Path_160" data-name="Path 160" d="M220,0H0V220H220ZM113.3,157.19h15.07v2.86h-5.39v15.4H118.8v-15.4h-5.5Zm-15.4,9.35c0-6.05,3.08-9.57,8.25-9.57a23.98,23.98,0,0,1,5.5.77l-.55,2.75a23.211,23.211,0,0,0-4.07-.44c-3.63,0-4.73,2.75-4.73,6.38s1.32,6.27,4.18,6.27a18.7,18.7,0,0,0,4.84-.88l.77,2.75a18.371,18.371,0,0,1-6.6,1.32c-4.62,0-7.59-3.52-7.59-9.35m-14.3-9.35H95.81v2.86H87.78v4.51h7.7v2.75h-7.7v5.17h8.14v2.86H83.6ZM66,175.56H53.68V157.19H65.89v2.86H57.86v4.51h7.81v2.75H57.86v5.17H66Zm15.29,0H69.19V157.19h4.18v15.4h7.92Zm55-129.69L112.42,86.02H135.3a1.157,1.157,0,0,1,.88,1.98l-50.6,49.06a1.178,1.178,0,0,1-1.76-1.54l24.31-35.75H84.7a.99.99,0,0,1-.77-.33,1.21,1.21,0,0,1,0-1.65l50.49-53.46a1.32,1.32,0,0,1,.88-.44h.44v.22h.66a1.87,1.87,0,0,1-.22.99m3.3,120.89c1.87.22,2.86,1.1,4.07,4.29l1.54,4.4H140.8l-1.54-4.4c-.55-1.65-1.1-2.53-2.2-2.86h-2.42v7.37h-4.18V157.08h6.38a10.23,10.23,0,0,1,4.4.55,4.4,4.4,0,0,1,2.31,4.29c0,2.86-1.32,4.4-4.07,4.84m12.21,8.8h-4.18V157.19h4.29Zm7.48-9.13c0,4.18,1.32,6.27,4.18,6.27a18.7,18.7,0,0,0,4.84-.88l.77,2.75a17.929,17.929,0,0,1-6.6,1.32c-4.62,0-7.59-3.52-7.59-9.35s3.08-9.57,8.25-9.57a23.981,23.981,0,0,1,5.5.77l-.55,2.75a22.219,22.219,0,0,0-4.07-.44c-3.63,0-4.73,2.75-4.73,6.38m-19.69-3.74a2.53,2.53,0,0,0-.99-2.31,5.17,5.17,0,0,0-2.64-.44h-1.1v5.39h.77c2.53.11,3.96-.22,3.96-2.64M109.23,86.68l19.58-32.89L87.56,97.57h22.77l.66.22a1.21,1.21,0,0,1,.33,1.65L92.29,127.49l40.15-38.94H110.33l-.55-.22a1.21,1.21,0,0,1-.55-1.65" fill="#fff"/>
    </g>
  </g>
</svg>
