<svg id="Tile_Hybrid" xmlns="http://www.w3.org/2000/svg" xmlns:xlink="http://www.w3.org/1999/xlink" width="220" height="220" viewBox="0 0 220 220">
  <defs>
    <clipPath id="clip-path">
      <rect id="Rectangle_50" data-name="Rectangle 50" width="220" height="220" fill="none"/>
    </clipPath>
  </defs>
  <g id="Tile_Hybrid-2" data-name="Tile_Hybrid" transform="translate(110 110)" opacity="0.85">
    <g id="Group_21" data-name="Group 21" transform="translate(-110 -110)" clip-path="url(#clip-path)">
      <path id="Path_161" data-name="Path 161" d="M220,0H0V220H220ZM133.54,157.63h4.18V176h-4.18Zm-17.05,0h6.38a10.23,10.23,0,0,1,4.4.55,4.4,4.4,0,0,1,2.31,4.29,4.18,4.18,0,0,1-4.07,4.62c1.87.22,2.86,1.21,4.07,4.29l1.54,4.51h-4.29l-1.54-4.51c-.55-1.65-1.1-2.53-2.2-2.75h-2.42V176h-4.18Zm-16.5,0h5.39c3.08,0,3.96.11,5.06.55a3.85,3.85,0,0,1,2.2,3.85c0,2.42-1.1,3.74-3.63,4.18,2.75.22,4.29,1.76,4.29,4.51a4.62,4.62,0,0,1-3.08,4.62c-1.1.44-1.98.55-5.5.55H99.99Zm-18.81,0h4.84L89.76,165l3.96-7.37h4.07l-6.27,10.23V176H87.34v-8.14ZM74.8,165v-7.26h4.18V176H74.8v-8.14H68.42V176H64.24V157.63h4.18v7.26H74.8Zm66.66-83.16a20.13,20.13,0,0,1-12.54,18.59v12.32a1.43,1.43,0,0,1-1.43,1.43h-5.06c.77,6.16.22,11.22-1.76,15.07a14.85,14.85,0,0,1-9.46,7.48,21.45,21.45,0,0,1-6.49.77c-11.22,0-24.2-6.27-26.29-11.44a1.358,1.358,0,1,1,2.53-.99c.77,1.87,4.84,5.06,11.22,7.37s13.42,3.08,18.26,1.65a12.21,12.21,0,0,0,7.81-6.05c1.76-3.41,2.2-8.03,1.43-13.75H114.4a1.43,1.43,0,0,1-1.43-1.43V100.43a20.24,20.24,0,0,1-12.54-18.59V63.14a1.43,1.43,0,0,1,1.43-1.43h3.08V48.18a4.18,4.18,0,0,1,8.36,0V61.82h15.51V48.18a4.18,4.18,0,1,1,8.36,0V61.82h3.08a1.43,1.43,0,0,1,1.43,1.43V81.84Zm15.18,84.92c0,3.85-1.32,6.6-3.63,8.14s-2.86,1.1-6.27,1.1h-5.06V157.63h6.05c3.3,0,5.06.44,6.49,1.87a10.89,10.89,0,0,1,2.42,7.26m-6.16,5.28c1.1-.88,1.76-2.75,1.76-5.28s-.44-3.96-1.43-4.95-2.09-1.32-4.29-1.32h-.88v12.43h.66c2.42,0,3.41-.11,4.18-.88m-11.77-90.2V64.57H103.29V81.95a17.49,17.49,0,0,0,11.44,16.28h.11a17.49,17.49,0,0,0,4.29.88h3.85a17.6,17.6,0,0,0,4.18-.88h.22a17.49,17.49,0,0,0,11.33-16.39m-29.15-5.5a1.43,1.43,0,0,1,1.43-1.43h11.77a1.43,1.43,0,1,1,0,2.86H110.99a1.43,1.43,0,0,1-1.43-1.43m23.43-7.7a1.43,1.43,0,0,1-1.43,1.43H110.33a1.43,1.43,0,1,1,0-2.86h21.23a1.43,1.43,0,0,1,1.43,1.43m-1.43-6.93h2.75V48.18a1.43,1.43,0,0,0-2.86,0V61.71Zm-23.76,0h2.75V48.18a1.43,1.43,0,0,0-2.86,0V61.71Zm10.34,40.15-2.42-.44v10.12h10.45V101.42l-2.42.44h-5.61Zm-10.23,59.07a4.73,4.73,0,0,0-2.53-.44h-1.32V165h1.1c2.75,0,3.63-.55,3.63-2.42a1.76,1.76,0,0,0-.88-1.65m-2.64,6.71h-1.32v5.5h1.21a6.16,6.16,0,0,0,2.86-.44,3.08,3.08,0,0,0,0-4.73,6.82,6.82,0,0,0-2.75-.33m19.14-6.71a5.17,5.17,0,0,0-2.64-.44h-1.1v5.39h.77c2.53,0,3.96-.33,3.96-2.75a2.2,2.2,0,0,0-.99-2.2" fill="#fff"/>
    </g>
  </g>
</svg>
