<svg id="Tile_Trailer" xmlns="http://www.w3.org/2000/svg" xmlns:xlink="http://www.w3.org/1999/xlink" width="220" height="220" viewBox="0 0 220 220">
  <defs>
    <clipPath id="clip-path">
      <rect id="Rectangle_39" data-name="Rectangle 39" width="220" height="220" fill="none"/>
    </clipPath>
  </defs>
  <g id="Tile_Trailer-2" data-name="Tile_Trailer" transform="translate(110 110)" opacity="0.85">
    <g id="Tile_Trailer-3" data-name="Tile_Trailer" transform="translate(-110 -110)" clip-path="url(#clip-path)">
      <path id="Path_150" data-name="Path 150" d="M220,0H0V220H220ZM148.28,157.63h6.38c2.53,0,3.41.11,4.4.55a4.4,4.4,0,0,1,2.31,4.29c0,2.64-1.32,4.18-4.07,4.73,1.87.22,2.97,1.1,4.07,4.4l1.54,4.4h-4.29l-1.54-4.4c-.55-1.65-1.1-2.53-2.2-2.75h-2.42V176h-4.18V157.63Zm-2.75-20.13a9.24,9.24,0,1,1,9.24-9.57q0,.33,0,.66a9.02,9.02,0,0,1-9.13,8.91h-.11m-12.76,20.13h12.21v2.97h-8.03v4.51h7.7v2.75h-7.7v5.28h8.25V176H132.88Zm-14.41,0h4.18v15.4h8.03V176h-12.1V157.63Zm-8.14,0h4.18V176h-4.18ZM90.42,176l6.38-18.37h4.73l6.6,18.37h-4.51l-1.32-4.07H95.48L94.16,176ZM74.36,157.63h6.38c2.53,0,3.41.11,4.4.55a4.4,4.4,0,0,1,2.31,4.29c0,2.64-1.32,4.18-4.07,4.73,1.87.22,2.97,1.1,4.07,4.4l1.54,4.4h-4.4l-1.54-4.4c-.55-1.65-1.1-2.53-2.2-2.75H78.54V176H74.36Zm-17.38,0H72.05v2.97h-5.5V176H62.48V160.6h-5.5v-2.97Zm-5.61-29.26a9.13,9.13,0,1,1,18.15-.44q0,.33,0,.66a9.13,9.13,0,0,1-18.15-.11m-21.89,0a9.24,9.24,0,0,1,9.24-9.13,9.13,9.13,0,1,1-9.24,9.13m134.31-11.77h-3.74V82.61h3.74Zm0,6.93h-8.03a10.56,10.56,0,0,0-13.64-6.05,10.34,10.34,0,0,0-6.05,6.05H71.06a10.89,10.89,0,0,0-20.57,0H49.17a10.89,10.89,0,0,0-20.57,0H25.3V82.61H156.75V118.8h7.04Zm.88,4.84a9.24,9.24,0,0,1,9.24-9.13,9.13,9.13,0,1,1-9.24,9.13m30.25-8.8a6.71,6.71,0,0,1-6.71,6.71h-2.2c0-.11-3.74-13.53-18.7-9.46V89.21a6.71,6.71,0,0,1,6.71-6.71H188.1a6.71,6.71,0,0,1,6.71,6.71v30.47Zm-23.1-15.18h17.71V87.56H171.82Zm-1.32,23.87a3.3,3.3,0,1,0,3.3-3.3,3.3,3.3,0,0,0-3.3,3.3m-135.19,0a3.3,3.3,0,1,0,3.3-3.3,3.3,3.3,0,0,0-3.3,3.3m21.89.11a3.3,3.3,0,1,0,3.3-3.3,3.41,3.41,0,0,0-3.3,3.3m25.08,32.45a5.5,5.5,0,0,0-2.64-.44h-1.1v5.39h.77c2.64,0,3.96-.33,3.96-2.75a2.42,2.42,0,0,0-.99-2.2Zm16.5,0-2.53,8.36h5.17Zm43.78-32.45a3.3,3.3,0,1,0,3.3-3.3,3.3,3.3,0,0,0-3.3,3.3m13.64,32.45a5.5,5.5,0,0,0-2.64-.44h-1.1v5.39h.77c2.53,0,3.96-.33,3.96-2.75A2.31,2.31,0,0,0,156.2,160.93Z" fill="#fff"/>
    </g>
  </g>
</svg>
