<svg id="Tile_Truck" xmlns="http://www.w3.org/2000/svg" xmlns:xlink="http://www.w3.org/1999/xlink" width="220" height="220" viewBox="0 0 220 220">
  <defs>
    <clipPath id="clip-path">
      <rect id="Rectangle_41" data-name="Rectangle 41" width="220" height="220" fill="none"/>
    </clipPath>
  </defs>
  <g id="Tile_Truck-2" data-name="Tile_Truck" transform="translate(110 110)" opacity="0.85">
    <g id="Tile_Truck-3" data-name="Tile_Truck" transform="translate(-110 -110)" clip-path="url(#clip-path)">
      <path id="Path_152" data-name="Path 152" d="M220,0H0V220H220ZM150.15,137.5a7.48,7.48,0,1,1,7.48-7.48A7.48,7.48,0,0,1,150.15,137.5Zm-13.53,20.13h4.18v8.36l5.94-8.36h4.29l-6.71,8.58,7.26,9.79h-4.73l-6.05-8.69V176h-4.18V157.63Zm-16.5,9.35c0-6.05,3.08-9.57,8.25-9.57a22.11,22.11,0,0,1,5.5.77l-.55,2.75a21.339,21.339,0,0,0-4.07-.44c-3.63,0-4.73,2.75-4.73,6.38s1.43,6.27,4.18,6.27a18.48,18.48,0,0,0,4.84-.88l.77,2.75a17.93,17.93,0,0,1-6.6,1.32C123.09,176.33,120.12,172.81,120.12,166.98Zm-17.82-9.35h4.18V168.3c0,2.86.11,4.95,3.52,4.95,1.65,0,2.75-.55,3.19-1.65a9.68,9.68,0,0,0,.33-3.52V157.63h3.63v10.89c0,3.63-.33,4.84-1.76,6.05a8.91,8.91,0,0,1-5.83,1.76c-2.86,0-5.17-.99-6.27-2.64s-.88-2.09-.88-5.28V157.63Zm-16.61,0h6.38c2.53,0,3.41.11,4.4.55a4.4,4.4,0,0,1,2.31,4.29c0,2.64-1.32,4.18-4.07,4.73,1.87.22,2.97,1.1,4.07,4.4l1.54,4.4H96.03l-1.54-4.4c-.55-1.65-1.1-2.53-2.2-2.75H89.87V176H85.8V157.63Zm-17.38,0H83.38v2.97H77.99V176H73.81V160.6h-5.5v-2.97Zm-2.64-27.72a7.48,7.48,0,1,1,7.59,7.48,7.59,7.59,0,0,1-7.59-7.481h0ZM168.63,121h-1.76a6.6,6.6,0,0,1-6.6,5.83h-1.43a9.68,9.68,0,0,0-9.02-6.05c-4.84,0-8.58,3.96-9.02,6.05H81.95a9.24,9.24,0,0,0-5.39-5.39,9.35,9.35,0,0,0-12.1,5.39H51.37V82.5h89.98l-1.32,5.83h-5.28v36.3h2.64V94.49a6.71,6.71,0,0,1,6.71-6.71h14.3a6.71,6.71,0,0,1,6.71,6.71l1.87,17.71h1.65V121Zm-15.62-19.58,8.69,3.3-1.98-11.77H141.9v6.71ZM70.4,130.02a2.7,2.7,0,1,0,0-.11h0m23.21,30.8a5.5,5.5,0,0,0-2.64-.44h-1.1v5.39h.77c2.64,0,3.96-.33,3.96-2.75a2.31,2.31,0,0,0-.99-2.2Zm56.54-28.16a2.75,2.75,0,1,0-2.75-2.75h0a2.75,2.75,0,0,0,2.75,2.64" fill="#fff"/>
    </g>
  </g>
</svg>
