<svg id="Tile_SmallTruck_Van" xmlns="http://www.w3.org/2000/svg" xmlns:xlink="http://www.w3.org/1999/xlink" width="220" height="220" viewBox="0 0 220 220">
  <defs>
    <clipPath id="clip-path">
      <rect id="Rectangle_43" data-name="Rectangle 43" width="220" height="220" fill="none"/>
    </clipPath>
  </defs>
  <g id="Tile_SmallTruck_Van-2" data-name="Tile_SmallTruck_Van" transform="translate(110 110)" opacity="0.85">
    <g id="Group_14" data-name="Group 14" transform="translate(-110 -110)" clip-path="url(#clip-path)">
      <path id="Path_154" data-name="Path 154" d="M220,0H0V220H220ZM132.88,185.13h5.39l6.27,14.3-.22-14.3h3.41V203.5h-5.39l-6.27-14.3.22,14.3h-3.41ZM144.1,137.5a8.91,8.91,0,1,1,9.02-8.69,8.91,8.91,0,0,1-9.02,8.69m-11.88,20.13h6.38c2.42,0,3.41.11,4.4.66a4.95,4.95,0,0,1-1.76,9.02c1.87.22,2.86,1.21,4.07,4.4l1.54,4.4h-4.29l-1.54-4.4c-.55-1.65-1.1-2.53-2.2-2.86H136.4v7.37h-4.18Zm-19.25,45.76,6.38-18.37h4.73l6.6,18.37h-4.51l-1.32-4.07h-6.82l-1.32,4.07Zm11.44-42.9V176h-4.18V160.49h-5.5v-2.86H129.8v2.86ZM96.8,185.13h4.4l4.51,14.85,4.4-14.85h3.85l-6.16,18.26h-4.62Zm-2.09-27.5h4.18v15.4h7.92V176H94.71Zm-2.31,15.4V176H80.3V157.63h4.18v15.4ZM79.2,136.29a8.8,8.8,0,0,1-8.69-8.91,8.91,8.91,0,0,1,9.02-8.69,8.69,8.69,0,0,1,8.58,8.91,8.58,8.58,0,0,1-8.91,8.69m-8.14,62.04c0-2.97,1.43-4.07,3.74-4.84a5.5,5.5,0,0,1-1.87-4.07c0-2.97,2.53-4.62,5.83-4.62s5.39,1.43,5.39,3.96-1.87,3.96-4.18,4.84c0,0,3.41,3.52,4.29,4.18a7.37,7.37,0,0,0,.99-3.41H88a7.92,7.92,0,0,1-1.87,5.06,5.94,5.94,0,0,0,2.64,1.65l-.99,2.31a8.25,8.25,0,0,1-4.07-1.76,8.69,8.69,0,0,1-5.72,1.87c-4.18.33-6.93-1.65-6.93-5.17M60.39,175.89l6.38-18.37H71.5l6.6,18.37H73.59l-1.32-4.07H65.45l-1.32,4.07ZM26.62,162.58c0,1.21.77,1.65,2.64,2.09,3.63.77,6.27,1.54,6.27,5.5s-2.75,6.05-7.37,6.05a25.85,25.85,0,0,1-5.83-.88l.66-2.75a27.387,27.387,0,0,0,4.62.66c1.54,0,3.85-.55,3.85-2.31s-.55-1.65-2.75-2.2-6.16-1.76-6.16-5.72,2.42-5.5,6.49-5.5a23.979,23.979,0,0,1,5.83.88l-.66,2.75a29.367,29.367,0,0,0-4.4-.55c-1.43-.22-3.19.33-3.19,1.98m31.57,13.31H54.34l-.22-15.07-4.18,15.07H45.65l-4.07-15.07-.33,15.07H37.84l1.1-18.37h5.17l4.07,14.85,3.96-14.85h5.17Zm102.3-57.86-1.21,10.56-4.51,2.2s.22-13.97-10.34-13.64-11.33,11-11.33,11l-43.01-.77s-.88-8.91-10.34-9.68-10.78,8.8-10.78,8.8l-8.47-1.21s-1.32-4.95-.77-15.73c.99-16.83,4.84-19.47,8.25-21.12s49.61.77,54.23.88,24.42,14.41,24.42,14.41c8.14.33,14.08,14.41,13.86,14.3m3.08,50.38c0,3.63-.33,4.84-1.76,6.05a9.24,9.24,0,0,1-5.83,1.76c-2.86,0-5.17-.99-6.27-2.64s-.99-2.09-.99-5.28V157.52h4.18v10.67c0,2.86.11,4.95,3.52,4.95a3.19,3.19,0,0,0,3.19-1.65,8.91,8.91,0,0,0,.33-3.52V157.52h3.63Zm7.37-1.65c0,4.18,1.32,6.27,4.18,6.27a18.7,18.7,0,0,0,4.84-.88l.77,2.75a17.82,17.82,0,0,1-6.49,1.32c-4.62,0-7.59-3.52-7.59-9.35s3.08-9.57,8.25-9.57a23.98,23.98,0,0,1,5.5.77l-.55,2.86a22.441,22.441,0,0,0-4.07-.44c-3.74-.11-4.84,2.64-4.84,6.27m19.91-.66,7.26,9.79h-4.73l-6.05-8.69v8.69h-4.18V157.52h4.18v8.36l5.94-8.36h4.29Zm-75.79-61.05,21.78.33-.55-1.76S125.4,92.73,121.44,93.28a22.88,22.88,0,0,1-6.71-.11ZM68.75,160.82l-2.53,8.36h5.17Zm6.27,37.29a2.97,2.97,0,0,0,3.3,3.08,5.72,5.72,0,0,0,3.19-.88l-.99-.99-3.96-3.96a2.75,2.75,0,0,0-1.54,2.75m3.19-5.94c1.32-.66,2.42-1.43,2.42-3.08s-.77-1.87-2.09-1.87-2.2.66-2.2,1.76a5.61,5.61,0,0,0,1.87,3.19m1.1-61.49a3.246,3.246,0,1,0,.11-6.49,3.3,3.3,0,0,0-3.3,3.19,3.41,3.41,0,0,0,3.19,3.3m42.02,57.64-2.53,8.36h5.17Zm18.7-27.5a5.17,5.17,0,0,0-2.64-.44h-1.1v5.39h.77c2.53,0,3.96-.33,3.96-2.75s-.22-1.76-.99-2.2m4.18-28.93a3.246,3.246,0,1,0,.11-6.49,3.3,3.3,0,0,0-.11,6.49" fill="#fff"/>
    </g>
  </g>
</svg>
