<svg id="Tile_MultiTemp" xmlns="http://www.w3.org/2000/svg" xmlns:xlink="http://www.w3.org/1999/xlink" width="220" height="220" viewBox="0 0 220 220">
  <defs>
    <clipPath id="clip-path">
      <rect id="Rectangle_45" data-name="Rectangle 45" width="220" height="220" fill="none"/>
    </clipPath>
  </defs>
  <g id="Tile_MultiTemp-2" data-name="Tile_MultiTemp" transform="translate(110 110)" opacity="0.849">
    <g id="Group_16" data-name="Group 16" transform="translate(-110 -110)" clip-path="url(#clip-path)">
      <path id="Path_156" data-name="Path 156" d="M220,0H0V220H220ZM174.13,184.91h6.38a10.23,10.23,0,0,1,4.4.55,4.4,4.4,0,0,1,2.31,4.29,4.18,4.18,0,0,1-4.07,4.62c1.87.22,2.86,1.21,4.07,4.29l1.54,4.51h-4.29l-1.54-4.51c-.55-1.65-1.1-2.53-2.2-2.75h-2.42v7.37h-4.18Zm-18.59,0h4.18v10.56c0,2.86.11,4.95,3.52,4.95,1.65,0,2.75-.55,3.19-1.65a11.33,11.33,0,0,0,.33-3.52V184.91h3.63v10.78c0,3.63-.33,4.84-1.76,6.05a9.24,9.24,0,0,1-5.83,1.76c-2.86,0-5.17-.99-6.27-2.64s-.99-2.09-.99-5.28Zm-11.88,2.86h-5.5v-2.86h15.07v2.86h-5.39v15.4h-4.18Zm.44-30.36h4.18v18.37H144.1Zm-17.38,0h15.07v2.86h-5.5v15.51h-4.18V160.27h-5.5v-2.86Zm1.32,15.4v2.97h-12.1V157.41h4.18v15.4Zm-6.16,30.36,6.38-18.37h4.73l6.6,18.37h-4.51l-1.32-4.07h-6.82l-1.32,4.07Zm-16.06-18.26h6.27a10.23,10.23,0,0,1,4.4.55,4.4,4.4,0,0,1,2.31,4.29,4.18,4.18,0,0,1-4.07,4.62c1.87.22,2.86,1.21,4.07,4.29l1.54,4.51h-4.29l-1.54-4.51c-.55-1.65-1.1-2.53-2.2-2.75H110v7.37h-4.18Zm-1.32-8.8c-2.86,0-5.17-.99-6.38-2.64s-.99-2.09-.99-5.28V157.41h4.18v10.67c0,2.75.11,4.95,3.52,4.95,1.65,0,2.75-.55,3.19-1.65a11.88,11.88,0,0,0,.33-3.52V157.41h3.63V168.3c0,3.63-.33,4.84-1.76,6.05a8.69,8.69,0,0,1-5.72,1.76m-14.08,8.8h12.21v2.86H94.6v4.51h7.7v2.75H94.6v5.28h8.14v2.86H90.42Zm-15.95,0h6.38c2.86,0,3.96.22,4.95.77A5.06,5.06,0,0,1,88,190.3a5.94,5.94,0,0,1-1.54,4.4c-1.1.99-2.64,1.43-5.28,1.43H78.65v7.04H74.47ZM50.38,203.17l1.1-18.37h5.17l4.07,14.74,3.96-14.74h5.17l.77,18.37H66.77l-.22-15.07-4.18,15.07H58.08L54.01,188.1l-.33,15.07ZM35.53,184.91H47.74v2.86H39.71v4.51h7.81v2.75H39.71v5.28h8.14v2.86H35.53Zm-17.38,0H33.22v2.86H27.83v15.4H23.65v-15.4h-5.5ZM81.29,112.2A25.3,25.3,0,1,1,43.34,90.31l.22-49.61c0-7.37,5.5-13.2,12.54-13.2A13.09,13.09,0,0,1,69.19,40.59V90.64a25.41,25.41,0,0,1,12.1,21.56m2.53,59.95,3.96-14.74h5.17l.66,18.37H89.76l-.22-15.07-4.18,15.07H81.07L77,160.71l-.33,15.07H73.26l1.1-18.37h5.17ZM135.3,112.2A25.3,25.3,0,1,1,97.35,90.31V40.7c0-7.37,5.5-13.2,12.54-13.2a13.09,13.09,0,0,1,13.09,13.09V90.64A25.19,25.19,0,0,1,135.3,112.2m53.9,0a25.3,25.3,0,1,1-37.95-21.89V40.7c0-7.37,5.5-13.2,12.54-13.2a13.09,13.09,0,0,1,13.09,13.09V90.64A25.19,25.19,0,0,1,189.2,112.2m14.3,90.97H191.18V184.8h12.21v2.86h-8.03v4.51h7.81v2.75h-7.81v5.28h8.14ZM186.45,112.2a22.44,22.44,0,0,0-11.44-19.58,1.21,1.21,0,0,1-.66-1.21V40.59A10.45,10.45,0,0,0,163.9,30.14c-5.5,0-9.79,4.62-9.79,10.45v6.05h3.85a1.32,1.32,0,1,1,0,2.64h-3.85v5.83h3.85a1.32,1.32,0,0,1,1.32,1.32,1.43,1.43,0,0,1-1.32,1.32h-3.85v5.83h3.85a1.32,1.32,0,1,1,0,2.64h-3.85v5.83h3.85a1.32,1.32,0,1,1,0,2.64h-3.85v5.83h3.85a1.32,1.32,0,1,1,0,2.64H154v7.26a1.32,1.32,0,0,1-.77,1.21,22.55,22.55,0,0,0,10.67,42.46,21.67,21.67,0,0,0,22.55-21.89m-8.25-.44a14.08,14.08,0,1,1-15.4-14.08V73.92a1.32,1.32,0,1,1,2.64,0V97.79a14.08,14.08,0,0,1,12.76,13.97m-2.75,0a11.44,11.44,0,1,0-11.44,11.44,11.44,11.44,0,0,0,11.44-11.44m-42.9.44a22.44,22.44,0,0,0-11.44-19.58,1.21,1.21,0,0,1-.66-1.21V40.59A10.45,10.45,0,0,0,110,30.14c-5.5,0-9.79,4.62-9.79,10.45v6.05h3.85a1.32,1.32,0,1,1,0,2.64h-3.85v5.83h3.85a1.32,1.32,0,0,1,1.32,1.32,1.43,1.43,0,0,1-1.32,1.32h-3.85v5.83h3.85a1.32,1.32,0,1,1,0,2.64h-3.85v5.83h3.85a1.32,1.32,0,1,1,0,2.64H100.1v5.83h3.85a1.32,1.32,0,0,1,0,2.64H100.1v7.26a1.32,1.32,0,0,1-.77,1.21A22.55,22.55,0,0,0,110,134.09a21.67,21.67,0,0,0,22.55-21.89m-8.25-.44a14.08,14.08,0,1,1-15.4-14.08V73.92a1.32,1.32,0,1,1,2.64,0V97.79a14.08,14.08,0,0,1,12.76,13.97m-2.75,0a11.44,11.44,0,1,0-11.44,11.44,11.44,11.44,0,0,0,11.44-11.44m-42.9.44A22.44,22.44,0,0,0,67.21,92.62a1.21,1.21,0,0,1-.66-1.21V40.59A10.45,10.45,0,0,0,56.1,30.14c-5.5,0-9.79,4.62-9.79,10.45v6.05h3.85a1.32,1.32,0,1,1,0,2.64H46.31v5.83h3.85a1.32,1.32,0,0,1,1.32,1.32,1.43,1.43,0,0,1-1.32,1.32H46.2v5.83h3.85a1.32,1.32,0,1,1,0,2.64H46.2v5.83h3.85a1.32,1.32,0,1,1,0,2.64H46.2v5.83h3.85a1.32,1.32,0,1,1,0,2.64H46.2v7.26a1.32,1.32,0,0,1-.77,1.21A22.55,22.55,0,0,0,56.1,134.09,21.67,21.67,0,0,0,78.65,112.2m-8.25-.44A14.08,14.08,0,1,1,55,97.68V73.92a1.32,1.32,0,0,1,2.64,0V97.79A14.08,14.08,0,0,1,70.4,111.76m-2.75,0A11.44,11.44,0,1,0,56.21,123.2a11.44,11.44,0,0,0,11.44-11.44m14.74,76.23a7.26,7.26,0,0,0-2.64-.22h-1.1v5.61h.77a8.91,8.91,0,0,0,3.08-.33c.99-.44,1.32-1.21,1.32-2.53a2.53,2.53,0,0,0-1.43-2.53m31.35.11a5.17,5.17,0,0,0-2.64-.44H110v5.39h.77c2.64,0,3.96-.33,3.96-2.75a2.53,2.53,0,0,0-.99-2.2m16.61,0-2.53,8.36h5.17Zm51.7,0a5.17,5.17,0,0,0-2.64-.44h-1.1v5.39h.77c2.53,0,3.96-.33,3.96-2.75a2.53,2.53,0,0,0-.99-2.2" fill="#fff"/>
    </g>
  </g>
</svg>
