<svg id="Tile_SingleTemp" xmlns="http://www.w3.org/2000/svg" xmlns:xlink="http://www.w3.org/1999/xlink" width="220" height="220" viewBox="0 0 220 220">
  <defs>
    <clipPath id="clip-path">
      <rect id="Rectangle_44" data-name="Rectangle 44" width="220" height="220" fill="none"/>
    </clipPath>
  </defs>
  <g id="Tile_SingleTemp-2" data-name="Tile_SingleTemp" transform="translate(110 110)" opacity="0.849">
    <g id="Group_15" data-name="Group 15" transform="translate(-110 -110)" clip-path="url(#clip-path)">
      <path id="Path_155" data-name="Path 155" d="M220,0H0V220H220ZM142.89,187.77h-5.5v-2.86h15.07v2.86h-5.39v15.4h-4.18Zm-21.78,15.4,6.38-18.37h4.73l6.6,18.37h-4.51l-1.32-4.07h-6.82l-1.32,4.07Zm-1.32-30.58v-5.61h3.96v7.48a20.02,20.02,0,0,1-7.15,1.65c-4.95,0-7.92-3.41-7.92-9.46s3.19-9.57,8.36-9.57a21.781,21.781,0,0,1,6.16.99l-.66,2.75a30.03,30.03,0,0,0-5.06-.66c-3.08,0-4.51,2.09-4.51,6.49a8.69,8.69,0,0,0,1.1,4.95,3.3,3.3,0,0,0,2.97,1.43,13.638,13.638,0,0,0,2.75-.44m-14.74,12.32h6.27a10.23,10.23,0,0,1,4.4.55,4.4,4.4,0,0,1,2.31,4.29,4.18,4.18,0,0,1-4.07,4.62c1.87.22,2.86,1.21,4.07,4.29l1.54,4.51h-4.29l-1.54-4.51c-.55-1.65-1.1-2.53-2.2-2.75h-2.42v7.37h-4.18V184.91Zm-2.75-13.2-.22-14.3h3.52v18.37h-5.39l-6.27-14.3.22,14.3H90.75V157.41h5.39Zm-12.65,13.2h12.21v2.86H93.83v4.51h7.7v2.75h-7.7v5.28h8.14v2.86H89.65Zm-57.2,2.86H27.06v15.4H22.88v-15.4h-5.5v-2.86H32.45Zm14.63,15.4H34.76V184.8H46.97v2.86H38.94v4.51h7.81v2.75H38.94v5.28h8.14Zm16.94-18.26h5.17l.77,18.37H66.11l-.22-15.07-4.18,15.07H57.42l-4.07-15.07-.33,15.07H49.61l1.1-18.37h5.17l4.07,14.74Zm6.6-22.55c0,1.21.77,1.65,2.64,2.09,3.63.77,6.27,1.54,6.27,5.5S76.89,176,72.16,176a25.85,25.85,0,0,1-5.83-.88l.66-2.75a28.929,28.929,0,0,0,4.62.66c1.54,0,3.85-.55,3.85-2.31s-.55-1.65-2.75-2.2-6.16-1.76-6.16-5.72,2.42-5.61,6.49-5.61a23.98,23.98,0,0,1,5.83.88l-.66,2.75a29.478,29.478,0,0,0-4.4-.55c-1.32-.11-3.19.33-3.19,2.09m9.46,22.55c2.86,0,3.85.22,4.95.77a5.06,5.06,0,0,1,2.2,4.62,5.94,5.94,0,0,1-1.54,4.4c-1.1.99-2.64,1.43-5.28,1.43H77.88v7.04H73.7V184.8h6.38Zm2.53-27.5h4.18v18.37H82.61ZM135.3,112.2A25.3,25.3,0,1,1,97.35,90.31V40.7c0-7.37,5.5-13.2,12.54-13.2a13.09,13.09,0,0,1,13.09,13.09V90.64A25.19,25.19,0,0,1,135.3,112.2m4.18,63.58h-12.1V157.41h4.18v15.4h8.03v2.97Zm14.52,0H141.68V157.41h12.21v2.86h-8.03v4.51h7.7v2.75h-7.7v5.17H154Zm15.51,19.91c0,3.63-.33,4.84-1.76,6.05a9.24,9.24,0,0,1-5.83,1.76c-2.86,0-5.17-.99-6.38-2.64s-.88-2.09-.88-5.28V184.8h4.18v10.56c0,2.86.11,4.95,3.52,4.95,1.65,0,2.75-.55,3.19-1.65a11.33,11.33,0,0,0,.33-3.52V184.8h3.63Zm12.87-1.32c1.87.22,2.86,1.21,4.07,4.29l1.54,4.51H183.7l-1.54-4.51c-.55-1.65-1.1-2.53-2.2-2.75h-2.42v7.37h-4.18V184.8h6.38a10.23,10.23,0,0,1,4.4.55,4.4,4.4,0,0,1,2.31,4.29c0,2.75-1.32,4.4-4.07,4.73m20.24,8.8H190.3V184.8h12.21v2.86h-8.03v4.51h7.81v2.75h-7.81v5.28h8.14Zm-20.35-12.76a2.53,2.53,0,0,0-.99-2.31,5.17,5.17,0,0,0-2.64-.44h-1.1v5.39h.77c2.53.11,3.96-.33,3.96-2.64M132.55,112.2a22.44,22.44,0,0,0-11.44-19.58,1.21,1.21,0,0,1-.66-1.21V40.59A10.45,10.45,0,0,0,110,30.14c-5.5,0-9.79,4.62-9.79,10.45v6.05h3.85a1.32,1.32,0,1,1,0,2.64h-3.85v5.83h3.85a1.32,1.32,0,0,1,1.32,1.32,1.43,1.43,0,0,1-1.32,1.32h-3.85v5.83h3.85a1.32,1.32,0,1,1,0,2.64h-3.85v5.83h3.85a1.32,1.32,0,1,1,0,2.64H100.1v5.83h3.85a1.32,1.32,0,0,1,0,2.64H100.1v7.26a1.32,1.32,0,0,1-.77,1.21A22.55,22.55,0,0,0,110,134.09a21.67,21.67,0,0,0,22.55-21.89m-8.25-.44a14.08,14.08,0,1,1-15.4-14.08V73.92a1.32,1.32,0,1,1,2.64,0V97.79a14.08,14.08,0,0,1,12.76,13.97m-2.75,0a11.44,11.44,0,1,0-11.44,11.44,11.44,11.44,0,0,0,11.44-11.44m-38.5,78.76a2.2,2.2,0,0,0-1.54-2.42,7.26,7.26,0,0,0-2.64-.22h-1.1v5.61h.77a8.91,8.91,0,0,0,3.08-.33,2.64,2.64,0,0,0,1.43-2.64m29.92-2.42a5.17,5.17,0,0,0-2.64-.44h-1.1v5.39H110c2.53,0,3.96-.33,3.96-2.75a2.53,2.53,0,0,0-.99-2.2m16.5,0-2.53,8.36h5.17Z" fill="#fff"/>
    </g>
  </g>
</svg>
