<svg id="Tile_Standby_No" xmlns="http://www.w3.org/2000/svg" xmlns:xlink="http://www.w3.org/1999/xlink" width="220" height="220" viewBox="0 0 220 220">
  <defs>
    <clipPath id="clip-path">
      <rect id="Rectangle_54" data-name="Rectangle 54" width="220" height="220" fill="none"/>
    </clipPath>
  </defs>
  <g id="Tile_Standby_No-2" data-name="Tile_Standby_No" transform="translate(110 110)" opacity="0.85">
    <g id="Group_25" data-name="Group 25" transform="translate(-110 -110)" clip-path="url(#clip-path)">
      <path id="Path_165" data-name="Path 165" d="M220,0H0V220H220ZM152.57,161.37h4.29l5.06,11.44V161.37h2.75V176h-4.29l-5.06-11.44.22,11.44h-2.75V161.37ZM136.62,176l5.06-14.63h3.85L150.81,176h-3.63l-1.1-3.3h-5.5l-.99,3.3Zm6.49-64.57a1.444,1.444,0,0,1,1.87-2.2,13.861,13.861,0,0,1,2.2,2.2,15.95,15.95,0,1,1-22.44-2.2,1.54,1.54,0,0,1,2.09.11,1.43,1.43,0,0,1-.22,2.09l-1.76,1.76a13.09,13.09,0,1,0,20.13,16.61,13.31,13.31,0,0,0-1.87-18.37m-8.25,8.36a1.43,1.43,0,0,1-1.43-1.43V106.81a1.43,1.43,0,1,1,2.86,0v11.55a1.43,1.43,0,0,1-1.43,1.43M99.33,168.74c0,3.3,1.1,5.06,3.3,5.06a13.09,13.09,0,0,0,3.85-.66l.66,2.2a15.07,15.07,0,0,1-5.28,1.1c-3.74,0-6.05-2.86-6.05-7.48s2.53-7.7,6.6-7.7a15.18,15.18,0,0,1,4.4.66l-.44,2.2a13.642,13.642,0,0,0-3.3-.33c-2.97-.22-3.74,1.98-3.74,4.95m-2.2-77.88a1.43,1.43,0,0,1-1.43-1.43V63.36a1.43,1.43,0,0,1,2.86,0V88h15.95a1.43,1.43,0,0,1,0,2.86Zm22,70.29a22.879,22.879,0,0,1,4.62.66l-.44,2.2a20.019,20.019,0,0,0-3.52-.44c-1.1,0-2.64.33-2.64,1.76s.55,1.32,2.09,1.65,5.06,1.21,5.06,4.4-2.2,4.84-5.94,4.84a21.011,21.011,0,0,1-4.73-.66l.44-2.2a17.051,17.051,0,0,0,3.74.55c1.21,0,3.08-.44,3.08-1.87s-.44-1.32-2.2-1.76-4.95-1.32-4.95-4.62,2.2-4.51,5.39-4.51m10.89,2.53h-4.4v-2.31h12.1v2.31h-4.4V176h-3.3Zm-18.81,30.69c0-6.05,2.97-9.46,8.25-9.46s8.25,3.41,8.25,9.46-2.97,9.46-8.25,9.46-8.25-3.3-8.25-9.46m-18.15-9.13h5.39l6.27,14.3-.22-14.3h3.41V203.5h-5.39l-6.27-14.3.22,14.3H92.95V185.24Zm-3.08-23.87h3.3V176h-3.3Zm-13.64,0H81.4a8.36,8.36,0,0,1,3.52.44,3.85,3.85,0,0,1-1.43,7.15c1.43.22,2.31.88,3.19,3.52L88,176H84.59l-1.21-3.52c-.44-1.32-.88-2.09-1.76-2.2H79.64v5.94h-3.3Zm-13.97,0h12.1v2.31h-4.4V176h-3.3V163.68h-4.4ZM24.42,176H14.63V161.37h9.79v2.31H18.04v3.63H24.2v2.2H18.04v4.18h6.49V176Zm12.32,0H27.06V161.37h3.3v12.32h6.38Zm11.66,0H38.61V161.37H48.4v2.31H42.02v3.63h6.16v2.2H42.02v4.18H48.4Zm8.25-14.85a15.18,15.18,0,0,1,4.4.66l-.44,2.2a13.641,13.641,0,0,0-3.3-.33c-2.97,0-3.74,2.2-3.74,5.06s1.1,5.06,3.3,5.06a13.089,13.089,0,0,0,3.85-.66l.66,2.2a15.07,15.07,0,0,1-5.28,1.1c-3.74,0-6.05-2.86-6.05-7.48s2.53-7.81,6.6-7.81M142.01,88a1.43,1.43,0,1,1-2.86,0,40.48,40.48,0,1,0-40.48,40.48,1.43,1.43,0,1,1,0,2.86A43.45,43.45,0,1,1,142.01,88m22.77-56.65-.22.44-.33.33v.22c-1.54,1.54-3.08,3.19-4.51,4.84s-2.86,3.3-4.18,5.06l2.86,3.63,2.97,3.63a5.61,5.61,0,0,1-.77,1.65,1.1,1.1,0,0,1-.88.55l-.33.44v.55l-.44.44-.55.44-.66-.33-.55-.44-.55.66a1.98,1.98,0,0,1-.77.55h-.55a28.164,28.164,0,0,1-2.2-2.86l-2.09-3.3-3.3,4.29-2.97,3.96h-.44l-.77-.88V55l-.33-.22h-.33l-.55.33a3.3,3.3,0,0,1-.88-.88l-.66-1.1.33-.66c.11-.11.11-.22.22-.44s-.11-.44-.22-.66l-.33-.88,3.41-3.96,3.63-4.18a44.767,44.767,0,0,1-2.53-5.17,53.57,53.57,0,0,1-1.98-5.39l.66-.77.77-.66.55.44.33.44h.33l.33-.33v-.55a.88.88,0,0,1,.22-.44l.77-.22a20.129,20.129,0,0,1,2.86,3.96l2.53,3.74,4.51-4.95,4.84-4.51a1.76,1.76,0,0,1,.88.66l.66.77-.22.44.22.33.33.33h.77Zm14.96,137.28c0,3.08-.99,5.28-2.97,6.49s-2.31.88-5.06.88h-4.07V161.37h4.84c2.64,0,4.07.44,5.17,1.43a7.7,7.7,0,0,1,2.09,5.83m9.9-.33a3.3,3.3,0,0,1,3.41,3.63,3.74,3.74,0,0,1-2.53,3.74c-.88.33-1.65.44-4.4.44h-3.74V161.48h4.4a10.56,10.56,0,0,1,4.07.44,3.41,3.41,0,0,1-1.21,6.38m17.27-6.93-5.06,8.25v6.49h-3.3v-6.49l-4.95-8.25h3.85l3.08,5.94,3.08-5.94Zm-17.27,10.12a2.09,2.09,0,0,0-.88-1.87,4.18,4.18,0,0,0-2.09-.33h-1.1v4.4h.99a5.06,5.06,0,0,0,2.2-.33c.66-.22.88-.88.88-1.87m-.22-6.16a1.65,1.65,0,0,0-.66-1.43,4.29,4.29,0,0,0-1.98-.33h-1.1v3.63h.88c2.2,0,2.86-.44,2.86-1.87m-14.52,7.59c.88-.66,1.43-2.2,1.43-4.29s-.33-3.19-1.1-3.96-1.65-.99-3.41-.99h-.66v9.9h.55c1.76,0,2.53-.11,3.19-.66m-92.18-8.91a4.51,4.51,0,0,0-2.09-.33h-.88v4.29h.55c2.09,0,3.19-.33,3.19-2.2a1.87,1.87,0,0,0-.77-1.76m32.78,30.36a9.79,9.79,0,0,0,.99,4.95,3.41,3.41,0,0,0,2.97,1.54c2.64,0,3.96-2.09,3.96-6.49s-1.32-6.49-3.96-6.49-3.96,2.2-3.96,6.49m27.83-30.47-2.09,6.71h4.18Z" fill="#fff"/>
    </g>
  </g>
</svg>
