<svg id="Tile_Standby_Yes" xmlns="http://www.w3.org/2000/svg" xmlns:xlink="http://www.w3.org/1999/xlink" width="220" height="220" viewBox="0 0 220 220">
  <defs>
    <clipPath id="clip-path">
      <rect id="Rectangle_55" data-name="Rectangle 55" width="220" height="220" fill="none"/>
    </clipPath>
  </defs>
  <g id="Tile_Standby_Yes-2" data-name="Tile_Standby_Yes" transform="translate(110 110)" opacity="0.85">
    <g id="Group_26" data-name="Group 26" transform="translate(-110 -110)" clip-path="url(#clip-path)">
      <path id="Path_166" data-name="Path 166" d="M220,0H0V220H220ZM152.57,161.04h4.29l5.06,11.44V161.04h2.75v14.63h-4.29l-5.06-11.44.22,11.44h-2.75V161.04Zm-15.95,14.74,5.06-14.63h3.85l5.28,14.63h-3.63l-1.1-3.3h-5.5l-.99,3.3Zm5.39-64.35h0a1.43,1.43,0,0,1-.22-2.09,1.54,1.54,0,0,1,2.09-.22,13.86,13.86,0,0,1,2.2,2.2,16.06,16.06,0,1,1-22.55-2.2,1.54,1.54,0,0,1,1.87,2.31l-1.76,1.76a13.09,13.09,0,1,0,18.37-1.76m-8.36,8.25a1.43,1.43,0,0,1-1.43-1.43V106.59a1.43,1.43,0,1,1,2.86,0v11.66a1.43,1.43,0,0,1-1.43,1.43m-.33,43.67v12.32h-3.3V163.35h-4.4v-2.31h12.1v2.31Zm-13.97,39.27.66-2.86a28.818,28.818,0,0,0,4.62.66c1.54,0,3.85-.44,3.85-2.31s-.55-1.65-2.75-2.2-6.16-1.65-6.16-5.72,2.42-5.61,6.49-5.61a23.979,23.979,0,0,1,5.83.88l-.66,2.75a29.589,29.589,0,0,0-4.4-.55c-1.43,0-3.19.44-3.19,2.2s.77,1.65,2.64,2.09c3.63.77,6.27,1.54,6.27,5.5s-2.64,6.05-7.37,6.05a27.72,27.72,0,0,1-5.83-.88m-.88-26.73a21.011,21.011,0,0,1-4.73-.66l.44-2.2a17.159,17.159,0,0,0,3.74.55c1.21,0,3.08-.44,3.08-1.87s-.44-1.32-2.2-1.76-4.95-1.32-4.95-4.62,1.98-4.4,5.28-4.4a22.879,22.879,0,0,1,4.62.66l-.44,2.2a20.022,20.022,0,0,0-3.52-.44c-1.1,0-2.64.33-2.64,1.76s.55,1.32,2.09,1.65,5.06,1.21,5.06,4.4-2.09,4.73-5.83,4.73m-19.14-7.48c0,3.3,1.1,5.06,3.3,5.06a13.09,13.09,0,0,0,3.85-.66l.66,2.2a15.071,15.071,0,0,1-5.28,1.1c-3.74,0-6.05-2.86-6.05-7.48s2.53-7.7,6.6-7.7a15.181,15.181,0,0,1,4.4.66l-.44,2.2a13.64,13.64,0,0,0-3.3-.33c-2.97-.22-3.74,1.98-3.74,4.95M95.81,90.64a1.43,1.43,0,0,1-1.43-1.43V63.03a1.43,1.43,0,0,1,2.86,0V87.78H113.3a1.43,1.43,0,0,1,0,2.86Zm9.35,94.27h12.21v2.86h-8.03v4.51h7.7v2.75h-7.7v5.28h8.14v2.86H105.16Zm-18.81,0h4.84l3.74,7.37,3.96-7.37h4.07l-6.27,10.23v8.14H92.51v-8.14Zm3.63-23.76h3.3v14.63h-3.3Zm-13.64-.11H81.4a8.36,8.36,0,0,1,3.52.44,3.85,3.85,0,0,1-1.43,7.15c1.43.22,2.31.88,3.19,3.52l1.21,3.52H84.48l-1.21-3.52c-.44-1.32-.88-2.09-1.76-2.2H79.53v5.94h-3.3V161.04Zm-13.97,0h12.1v2.31h-4.4v12.32h-3.3V163.35h-4.4ZM24.42,175.78H14.63V161.15h9.79v2.31H18.04v3.63H24.2v2.2H18.04v4.18h6.49v2.31Zm12.32,0H27.06V161.15h3.3v12.32h6.38Zm11.66,0H38.61V161.15H48.4v2.31H42.02v3.63h6.16v2.2H42.02v4.18H48.4Zm8.25-14.96a15.181,15.181,0,0,1,4.4.66l-.44,2.2a13.639,13.639,0,0,0-3.3-.33c-2.97,0-3.74,2.2-3.74,5.06s1.1,5.06,3.3,5.06a13.09,13.09,0,0,0,3.85-.66l.66,2.2a15.07,15.07,0,0,1-5.28,1.1c-3.74,0-6.05-2.86-6.05-7.48s2.53-7.81,6.6-7.81m84.26-73.04a1.43,1.43,0,1,1-2.86,0,40.7,40.7,0,1,0-40.7,40.7,1.43,1.43,0,0,1,0,2.86,43.67,43.67,0,1,1,43.56-43.56m25.41-57.53a6.82,6.82,0,0,1-1.98,4.4l-.22.22L152.46,47.19a56.32,56.32,0,0,1-6.49,6.05,7.92,7.92,0,0,1-3.74,2.09,5.72,5.72,0,0,1-2.86-1.1,4.73,4.73,0,0,1-2.2-2.2,24.31,24.31,0,0,1-.66-4.07,44.881,44.881,0,0,1-.44-6.71,5.28,5.28,0,0,1,1.65-3.63,4.51,4.51,0,0,1,3.63-1.65c1.21,0,1.98,1.21,2.2,3.41v.55a15.07,15.07,0,0,0,.77,3.74c.22.66.66,1.1,1.1,1.1a2.31,2.31,0,0,0,1.1-.66l1.87-1.65,11.99-11.88a18.04,18.04,0,0,1,2.75-2.31,3.74,3.74,0,0,1,2.09-.77,1.32,1.32,0,0,1,.88.44,2.53,2.53,0,0,1,.22,1.54ZM179.74,168.3c0,3.08-.99,5.28-2.97,6.49s-2.31.88-5.06.88h-4.07V161.04h4.84c2.64,0,4.07.44,5.17,1.43a7.7,7.7,0,0,1,2.09,5.83m9.9-.33a3.3,3.3,0,0,1,3.41,3.63,3.74,3.74,0,0,1-2.53,3.74c-.88.33-1.65.44-4.4.44h-3.74V161.15h4.4a10.56,10.56,0,0,1,4.07.44,3.41,3.41,0,0,1-1.21,6.38m17.27-6.93-5.06,8.25v6.49h-3.3v-6.49l-4.95-8.25h3.85l3.08,5.94,3.08-5.94Zm-17.27,10.12a2.09,2.09,0,0,0-.88-1.87,4.18,4.18,0,0,0-2.09-.33h-1.1v4.4h.99a5.06,5.06,0,0,0,2.2-.33c.66-.22.88-.88.88-1.87m-.22-6.16a1.65,1.65,0,0,0-.66-1.43,4.29,4.29,0,0,0-1.98-.33h-1.1v3.63h.88c2.2,0,2.86-.33,2.86-1.87m-14.52,7.59c.88-.66,1.43-2.2,1.43-4.29s-.33-3.19-1.1-3.96-1.65-.99-3.41-.99h-.66v9.9h.55c1.76.11,2.53-.11,3.19-.66m-92.18-8.91a4.51,4.51,0,0,0-2.09-.33h-.88v4.29h.55c2.09,0,3.19-.33,3.19-2.2a1.76,1.76,0,0,0-.77-1.76m60.61-.11-2.09,6.71h4.18Z" fill="#fff"/>
    </g>
  </g>
</svg>
