<svg id="Tile_2zone" xmlns="http://www.w3.org/2000/svg" xmlns:xlink="http://www.w3.org/1999/xlink" width="220" height="220" viewBox="0 0 220 220">
  <defs>
    <clipPath id="clip-path">
      <rect id="Rectangle_59" data-name="Rectangle 59" width="220" height="220" fill="none"/>
    </clipPath>
  </defs>
  <g id="Tile_2zone-2" data-name="Tile_2zone" transform="translate(110 110)" opacity="0.85">
    <g id="Group_29" data-name="Group 29" transform="translate(-110 -110)" clip-path="url(#clip-path)">
      <path id="Path_169" data-name="Path 169" d="M220,0H0V220H220ZM163.13,128.37a9.68,9.68,0,1,1,9.68,9.57,9.57,9.57,0,0,1-9.68-9.57m-18.15,28.71h12.21v2.86h-8.03v4.51h7.81v2.75h-7.81v5.28h8.14v2.86H144.98Zm.66-19.03a9.57,9.57,0,1,1,6.838-2.763,9.57,9.57,0,0,1-6.838,2.763m-19.58,19.03h5.39l6.27,14.3-.22-14.3h3.41v18.37h-5.39l-6.27-14.3.22,14.3h-3.52V157.08Zm-19.69,9.24c0-6.05,2.97-9.46,8.25-9.46s8.25,3.41,8.25,9.46-2.97,9.46-8.25,9.46-8.25-3.41-8.25-9.46M90.2,172.7l9.35-12.76H90.42v-2.86H104.5v2.75l-9.35,12.76h9.68v2.86H90.2Zm-23.21.22,3.19-2.86c4.29-3.96,5.17-5.28,5.17-7.37s-1.1-2.97-3.08-2.97a19.251,19.251,0,0,0-4.51.77l-.55-2.53a23.76,23.76,0,0,1,6.71-1.21c3.19,0,5.5,1.65,5.5,5.28s-3.85,6.93-7.92,10.56h8.25v2.75H66.99ZM52.91,128.37a9.68,9.68,0,1,1,9.68,9.57,9.46,9.46,0,0,1-9.68-9.57m-21.34,0a9.68,9.68,0,1,1,9.68,9.57,9.57,9.57,0,0,1-9.68-9.57m125.29-10.01h6.93v5.94h-9.02l-.22-.44a9.46,9.46,0,0,0-8.91-6.05,9.57,9.57,0,0,0-8.91,6.05l-.22.44H72.27v-.44a9.9,9.9,0,0,0-9.35-6.71,9.79,9.79,0,0,0-9.35,6.71v.44H51.04v-.44a9.9,9.9,0,0,0-18.7,0v.44H27.5V83.16H156.86Zm6.82-.66h-5.06V83.16h5.06Zm30.25,2.09a7.15,7.15,0,0,1-7.26,7.15h-2.64v-.55c-.11-.55-3.63-12.32-17.38-8.58l-.88.22V90.2a7.15,7.15,0,0,1,7.26-7.15h13.75a7.26,7.26,0,0,1,7.26,7.151Zm-1.32,0V90.2a5.72,5.72,0,0,0-5.83-5.72H173.03A5.83,5.83,0,0,0,167.2,90.2V116.27c12.65-2.97,17.16,6.93,18.04,9.35h1.65a5.94,5.94,0,0,0,5.72-5.83m-3.85-13.97h-18.7V87.89h18.7Zm-1.32-16.5H171.6V104.5h15.84Zm-25.08-4.73h-2.2v31.68h2.2Zm-6.71,38.28h6.6v-3.08h-6.93V84.59H93.06v38.39h42.57a10.89,10.89,0,0,1,10.01-6.49,10.45,10.45,0,0,1,10.01,6.38M110.44,100.1l2.09.88a.44.44,0,0,1,.22.55l-.33.22h-.11l-2.64-1.1-3.3,2.09,3.41,2.09,2.42-.99a.44.44,0,0,1,.33.77l-1.87.77,1.87,1.21c.22.11.22.33.11.55l-.33.22h-.22l-1.87-1.21.33,2.2c0,.22-.11.44-.33.44h-.11c-.22,0-.33-.11-.44-.33l-.44-2.86-3.3-2.09v3.85l2.2,1.65c.22.11.22.33.11.55h-.55l-1.65-1.32V110a.44.44,0,1,1-.88,0v-1.98l-1.65,1.32c-.22.11-.44.11-.55-.11s-.11-.44.11-.55l2.2-1.76v-3.85l-3.63,2.2-.44,2.97c0,.22-.22.33-.44.33s-.33-.22-.33-.44l.33-1.98-1.65.99h-.22l-.33-.22c-.11-.22-.11-.44.11-.55l1.76-1.1-1.98-.77a.44.44,0,0,1,.33-.77l2.64.99,3.52-2.2-3.52-2.2-2.64,1.1h-.11l-.33-.22a.44.44,0,0,1,.22-.55l2.09-.88-1.87-1.1c-.22-.11-.22-.33-.11-.55s.33-.22.55-.11l1.76,1.1-.33-2.09c0-.22.11-.44.33-.44s.44.11.44.33l.33,2.75,3.52,2.2V98.01l-2.2-1.65c-.22-.11-.22-.33-.11-.55s.33-.22.55-.11l1.76,1.32v-2.2a.44.44,0,0,1,.88,0v2.2l1.76-1.32c.22-.11.44-.11.55.11s.11.44-.11.55l-2.2,1.65v3.85l3.3-2.09.33-2.75c0-.22.22-.33.44-.33s.33.22.33.44l-.33,2.09,1.98-1.21c.22-.11.44-.11.55.11s.11.44-.11.55Zm17.49,0,2.09.88a.44.44,0,0,1,.22.55l-.33.22h-.11l-2.64-1.1-3.3,2.09,3.41,2.09,2.42-.99a.44.44,0,1,1,.33.77l-1.87.77,1.87,1.21c.22.11.22.33.11.55l-.33.22h-.22l-1.87-1.21.33,2.2c0,.22-.11.44-.33.44h-.11c-.22,0-.33-.11-.44-.33l-.44-2.86-3.3-2.09v3.85l2.2,1.65c.22.11.22.33.11.55h-.55l-1.65-1.32V110a.44.44,0,0,1-.88,0v-1.98L121,109.34c-.22.11-.44.11-.55-.11s-.11-.44.11-.55l2.2-1.76v-3.85l-3.63,2.2-.33,2.64c0,.22-.22.33-.44.33h-.11c-.22,0-.33-.22-.33-.44l.33-1.98-1.65.99h-.22l-.33-.22c-.11-.22-.11-.44.11-.55l1.76-1.1-2.09-.77a.44.44,0,0,1,.33-.77l2.64.99,3.52-2.2-3.52-2.09-2.64,1.1h-.11l-.33-.22a.44.44,0,0,1,.22-.55l2.09-.88-1.87-1.1c-.22-.11-.22-.33-.11-.55s.33-.22.55-.11l1.76,1.1-.33-2.09c0-.22.11-.44.33-.44s.44.11.44.33l.33,2.75,3.52,2.2V97.79l-2.2-1.65c-.22-.11-.22-.33-.11-.55s.33-.22.55-.11l1.76,1.32V94.6a.44.44,0,0,1,.88,0v2.2l1.76-1.32c.22-.11.44-.11.55.11s.11.44-.11.55l-2.2,1.65v3.85l3.3-2.09.33-2.75c0-.22.22-.33.44-.33s.33.22.33.44L127.6,99l1.98-1.21c.22-.11.44-.11.55.11s.11.44-.11.55Zm17.49,0,2.09.88a.44.44,0,0,1,.22.55l-.33.22h-.11l-2.64-1.1-3.3,2.09,3.41,2.09,2.42-.99a.44.44,0,1,1,.33.77l-1.87.77,1.87,1.21c.22.11.22.33.11.55l-.33.22h-.22l-1.87-1.32.33,2.2c0,.22-.11.44-.33.44h-.11c-.22,0-.33-.11-.44-.33l-.44-2.86-3.3-2.09v3.85l2.2,1.65c.22.11.22.33.11.55h-.55l-1.65-1.32V110a.44.44,0,0,1-.88,0v-1.98l-1.65,1.32c-.22.11-.44.11-.55-.11s-.11-.44.11-.55l2.09-1.76v-3.85l-3.63,2.2-.33,2.64c0,.22-.22.33-.44.33h-.11c-.22,0-.33-.22-.33-.44l.33-1.98-1.65.99h-.22l-.33-.22c-.11-.22-.11-.44.11-.55l1.76-1.1-2.09-.77a.44.44,0,0,1,.33-.77l2.64.99,3.52-2.2-3.52-2.2-2.64,1.1h-.11l-.33-.22a.44.44,0,0,1,.22-.55l2.09-.88-1.87-1.1c-.22-.11-.22-.33-.11-.55s.33-.22.55-.11l1.76,1.1-.33-2.09c0-.22.11-.44.33-.44s.44.11.44.33l.33,2.75,3.52,2.2V97.79l-2.2-1.65c-.22-.11-.22-.33-.11-.55s.33-.22.55-.11l1.76,1.32V94.6a.44.44,0,0,1,.88,0v2.2l1.76-1.32c.22-.11.44-.11.55.11s.11.44-.11.55l-2.2,1.65v3.85l3.3-2.09.33-2.75c0-.22.22-.33.44-.33s.33.22.33.44L144.98,99l1.98-1.21c.22-.11.44-.11.55.11s.11.44-.11.55ZM73.26,122.87H91.41V84.59H28.93v38.39h2.09a11.22,11.22,0,0,1,10.45-7.15,11.44,11.44,0,0,1,10.56,7.15h.33a11.22,11.22,0,0,1,10.56-7.15,10.89,10.89,0,0,1,10.34,7.04M64.35,100.1l2.09.88a.44.44,0,0,1,.22.55l-.33.22h-.11l-2.64-1.1-3.3,2.09,3.41,2.09,2.42-.99a.44.44,0,1,1,.33.77l-1.87.77,1.87,1.21c.22.11.22.33.11.55l-.33.22H66l-1.87-1.21.33,2.2c0,.22-.11.44-.33.44s-.33-.11-.44-.33l-.44-2.86-3.3-2.09v3.85l2.2,1.65c.22.11.22.33.11.55h-.55l-1.65-1.32V110a.44.44,0,1,1-.88,0v-1.98l-1.65,1.32c-.22.11-.44.11-.55-.11s-.11-.44.11-.55l2.2-1.76v-3.85l-3.63,2.2-.33,2.64c0,.22-.22.33-.44.33s-.33-.22-.33-.44l.33-1.98-1.65.99h-.22l-.33-.22c-.11-.22-.11-.44.11-.55l1.76-1.1-2.31-.44a.44.44,0,0,1,.33-.77l2.64.99,3.52-2.2-3.52-2.2-2.64,1.1h-.11l-.33-.22a.44.44,0,0,1,.22-.55l2.09-.88-1.87-1.1c-.22-.11-.22-.33-.11-.55s.33-.22.55-.11l1.76,1.1-.33-2.09c0-.22.11-.44.33-.44s.44.11.44.33l.33,2.75,3.52,2.2V98.01l-2.2-1.65c-.22-.11-.22-.33-.11-.55s.33-.22.55-.11l1.76,1.32v-2.2a.44.44,0,0,1,.88,0v2.2l1.76-1.32c.22-.11.44-.11.55.11s.11.44-.11.55l-2.2,1.65v3.85l3.3-2.09.33-2.75c0-.22.22-.33.44-.33s.33.22.33.44l-.33,2.09L66,98.01c.22-.11.44-.11.55.11s.11.44-.11.55ZM33,128.37a8.25,8.25,0,1,0,8.25-8.14A8.25,8.25,0,0,0,33,128.37m4.29,0a3.96,3.96,0,1,1,3.96,3.96,3.96,3.96,0,0,1-3.96-3.96m1.43,0a2.53,2.53,0,1,0,2.53-2.53,2.64,2.64,0,0,0-2.53,2.53m15.62,0a8.25,8.25,0,1,0,8.25-8.14,8.25,8.25,0,0,0-8.25,8.14m4.29,0a3.96,3.96,0,1,1,3.96,3.96,3.96,3.96,0,0,1-3.96-3.96m1.43,0a2.53,2.53,0,1,0,2.53-2.53,2.53,2.53,0,0,0-2.53,2.53m50.6,37.84a9.57,9.57,0,0,0,.99,4.95,3.41,3.41,0,0,0,2.97,1.54c2.64,0,3.96-2.09,3.96-6.49s-1.32-6.49-3.96-6.49-3.96,2.31-3.96,6.49m34.98-29.59a8.14,8.14,0,1,0-8.25-8.14,8.25,8.25,0,0,0,8.25,8.14m0-4.29a3.96,3.96,0,1,1,3.96-3.96,3.96,3.96,0,0,1-3.96,3.96m0-1.43a2.53,2.53,0,1,0-2.53-2.53,2.42,2.42,0,0,0,2.53,2.53m18.92-2.53a8.25,8.25,0,1,0,8.25-8.14,8.25,8.25,0,0,0-8.25,8.14m4.29,0a3.96,3.96,0,1,1,3.96,3.96,3.96,3.96,0,0,1-3.96-3.96m1.43,0a2.53,2.53,0,1,0,2.53-2.53,2.64,2.64,0,0,0-2.53,2.53" fill="#fff"/>
    </g>
  </g>
</svg>
