<svg id="Tile_3zone" xmlns="http://www.w3.org/2000/svg" xmlns:xlink="http://www.w3.org/1999/xlink" width="220" height="220" viewBox="0 0 220 220">
  <defs>
    <clipPath id="clip-path">
      <rect id="Rectangle_60" data-name="Rectangle 60" width="220" height="220" fill="none"/>
    </clipPath>
  </defs>
  <g id="Tile_3zone-2" data-name="Tile_3zone" transform="translate(110 110)" opacity="0.85">
    <g id="Group_30" data-name="Group 30" transform="translate(-110 -110)" clip-path="url(#clip-path)">
      <path id="Path_170" data-name="Path 170" d="M220,0H0V220H220ZM162.47,127.93a9.68,9.68,0,1,1,9.68,9.57,9.57,9.57,0,0,1-9.68-9.57m-19.14,29.81h12.21v2.86H147.4v4.51h7.81v2.75H147.4v5.28h8.14V176H143.22V157.74Zm1.54-20.24a9.57,9.57,0,1,1,6.838-2.763,9.57,9.57,0,0,1-6.838,2.763m-20.46,20.24h5.39l6.27,14.3-.22-14.3h3.41V176h-5.39l-6.27-14.3.22,14.3H124.3V157.74Zm-19.69,9.13c0-6.05,2.97-9.46,8.25-9.46s8.25,3.41,8.25,9.46-2.97,9.46-8.25,9.46-8.25-3.3-8.25-9.46m-16.17,6.38L97.9,160.6H88.77v-2.86h14.08v2.75L93.5,173.14h9.68V176H88.55Zm-23.43,2.31.44-2.64a27.829,27.829,0,0,0,4.62.44c2.53,0,3.52-.99,3.52-2.97s-.88-2.64-3.74-2.64H68.31v-2.64a8.91,8.91,0,0,0,3.74-.44,2.31,2.31,0,0,0,1.32-2.31c0-1.76-1.1-2.31-2.64-2.31a28.378,28.378,0,0,0-4.73.66l-.55-2.53a24.2,24.2,0,0,1,6.38-1.1c3.08,0,5.28,1.32,5.28,4.4a4.4,4.4,0,0,1-3.74,4.62c2.42.33,4.4,1.54,4.4,4.4s-3.19,5.5-6.82,5.5a14.19,14.19,0,0,1-5.83-.44M52.14,127.93a9.68,9.68,0,1,1,9.68,9.57,9.57,9.57,0,0,1-9.68-9.57m-21.23,0a9.68,9.68,0,1,1,9.68,9.57,9.57,9.57,0,0,1-9.68-9.57m125.18-10.01h6.93v5.94H154l-.22-.44a9.46,9.46,0,0,0-8.91-6.05,9.57,9.57,0,0,0-8.91,6.05l-.22.44H71.5v-.44a9.9,9.9,0,0,0-9.35-6.71,9.79,9.79,0,0,0-9.35,6.71v.44H50.27v-.44a9.9,9.9,0,0,0-18.7,0v.44H26.84V82.61H156.2v35.31Zm6.93-.77h-5.06V82.61h5.06Zm30.25,2.09a7.15,7.15,0,0,1-7.26,7.15h-2.64v-.55c-.11-.55-3.63-12.32-17.38-8.58l-.88.22V89.65a7.15,7.15,0,0,1,7.26-7.15h13.75a7.26,7.26,0,0,1,7.26,7.151Zm-1.43,0V89.65a5.83,5.83,0,0,0-5.83-5.72H172.26a5.72,5.72,0,0,0-5.83,5.72v26.07c12.65-2.97,17.16,6.93,18.04,9.35h1.65a5.83,5.83,0,0,0,5.72-5.83m-3.74-13.86H169.4V87.45h18.7Zm-1.43-16.5H170.83v15.07h15.84Zm-25.08-4.84h-2.2v31.68h2.2Zm-6.6,38.39h6.6v-3.08h-6.93V84.15H113.19v38.39h21.67a10.89,10.89,0,0,1,10.01-6.49,10.78,10.78,0,0,1,10.12,6.38M124.96,99.88l1.54.66c.11.11.22.22.11.44s-.11.22-.33.22h-.11l-1.98-.88-2.53,1.54,2.64,1.65,1.87-.77c.11-.11.33,0,.44.22s0,.33-.22.44l-1.43.55,1.43.88c.11.11.22.22.11.44h-.33l-1.43-.88.22,1.65c0,.11-.11.33-.22.33l-.33-.22-.33-2.2-2.53-1.54v2.97l1.65,1.32a.33.33,0,0,1,0,.44h-.44l-1.32-.99v1.43a.33.33,0,1,1-.66,0v-1.32l-1.21.99h-.44a.33.33,0,0,1,0-.44l1.65-1.32v-2.97l-2.75,1.65-.33,1.98c0,.11-.11.22-.33.22s-.33-.22-.22-.33l.22-1.54-1.32.77h-.33c-.11-.11,0-.33.11-.44l1.43-.88-1.54-.66a.348.348,0,1,1,.22-.66l1.98.77,2.75-1.65-2.64-1.65-1.98.88h-.11l-.33-.22c-.11-.11,0-.33.11-.44l1.65-.66-1.43-.88c-.11-.11-.22-.22-.11-.44s.22-.22.44-.11l1.32.77-.22-1.54c0-.11.11-.33.22-.33s.33.11.33.22l.33,2.09,2.64,1.65V98.12l-1.65-1.32a.33.33,0,0,1,0-.44h.44l1.32.99V95.7a.33.33,0,1,1,.66,0v1.65l1.32-.99a.33.33,0,1,1,.33.55l-1.65,1.32v2.86l2.53-1.54.33-2.09c0-.11.22-.33.33-.22s.33.22.22.33l-.22,1.54,1.43-.88c.11-.11.33,0,.44.11s0,.33-.11.44Zm12.54,0,1.54.66c.11.11.22.22.11.44a.22.22,0,0,1-.22.22h-.11l-1.98-.88-2.53,1.54,2.64,1.65,1.87-.77c.11-.11.33,0,.44.22s0,.33-.22.44l-1.43.55,1.43.88c.11.11.22.22.11.44h-.33l-1.43-.88.22,1.65c0,.11-.11.33-.22.33l-.33-.22-.33-2.2-2.53-1.43v2.97l1.65,1.32a.33.33,0,0,1,0,.44h-.44l-1.32-.99v1.43a.33.33,0,0,1-.66,0v-1.43l-1.21.99h-.44a.33.33,0,0,1,0-.44l1.65-1.32v-2.97l-2.75,1.65-.33,1.98c0,.11-.11.22-.33.22s-.33-.22-.22-.33l.22-1.54-1.32.77h-.33c-.11-.11,0-.33.11-.44l1.43-.88-1.54-.66a.348.348,0,1,1,.22-.66l1.98.77,2.75-1.65-2.64-1.65-1.98.88h-.11l-.33-.22c-.11-.11,0-.33.11-.44l1.65-.66-1.43-.88c-.11-.11-.22-.22-.11-.44s.22-.22.44-.11l1.32.77-.22-1.54c0-.11.11-.33.22-.33s.33.11.33.22l.33,2.09,2.64,1.65V98.12l-1.65-1.32a.33.33,0,0,1,0-.44h.44l1.32.99V95.7a.33.33,0,1,1,.66,0v1.65l1.32-.99a.33.33,0,1,1,.33.55l-1.65,1.32v2.86l2.53-1.54.33-2.09c0-.11.22-.33.33-.22s.33.22.22.33l-.22,1.54,1.43-.88c.11-.11.33,0,.44.11s0,.33-.11.44Zm12.65,0,1.54.66c.11.11.22.22.11.44s-.11.22-.33.22h-.11l-1.98-.88-2.53,1.54,2.75,1.54,1.87-.77c.11-.11.33,0,.44.22s0,.33-.22.44l-1.43.55,1.43.88c.11.11.22.22.11.44h-.33l-1.43-.88.22,1.65c0,.11-.11.33-.22.33l-.33-.22-.33-2.2-2.53-1.54v2.97l1.65,1.43a.33.33,0,0,1,0,.44h-.44l-1.32-.99v1.43a.33.33,0,0,1-.66,0v-1.43l-1.21.99h-.44a.33.33,0,0,1,0-.44l1.65-1.32v-2.97l-2.75,1.65-.33,1.98c0,.11-.11.22-.33.22s-.33-.22-.22-.33l.22-1.54-1.32.77h-.33c-.11-.11,0-.33.11-.44l1.43-.88-1.54-.66a.55.55,0,0,1-.22-.44l.44-.22,1.98.77,2.75-1.65-2.64-1.65-1.98.88h-.11l-.33-.22c-.11-.11,0-.33.11-.44l1.65-.66-1.43-.88c-.11-.11-.22-.22-.11-.44s.22-.22.44-.11l1.32.77-.22-1.54c0-.11.11-.33.22-.33l.33.22.33,2.09,2.64,1.65V98.01l-1.65-1.32a.33.33,0,0,1,0-.44h.44l1.32.99V95.59a.33.33,0,0,1,.66,0v1.65l1.32-.99a.33.33,0,1,1,.33.55l-1.65,1.32v2.86l2.53-1.54.33-2.09c0-.11.22-.33.33-.22s.33.22.22.33L150.15,99l1.43-.88c.11-.11.33,0,.44.11s0,.33-.11.44ZM72.6,122.43h39.05V84.04H69.63v34.21a10.34,10.34,0,0,1,2.97,4.18m18.92-19.58a.55.55,0,0,1,.44-.22l1.98.77,2.75-1.65-2.64-1.65-1.98.88h-.11l-.33-.22c-.11-.11,0-.33.11-.44l1.65-.66-1.43-.88c-.11-.11-.22-.22-.11-.44s.22-.22.44-.11l1.32.77-.22-1.54c0-.11.11-.33.22-.33l.33.22.33,2.09,2.64,1.65V98.23l-1.65-1.32a.33.33,0,0,1,0-.44h.44l1.32.99V95.81a.33.33,0,0,1,.66,0v1.65L99,96.47a.33.33,0,0,1,.33.55l-1.65,1.32v2.86l2.53-1.54.33-2.09c0-.11.22-.33.33-.22s.33.22.22.33l-.22,1.54,1.43-.88c.11-.11.33,0,.44.11s0,.33-.11.44l-1.54.99,1.54.66c.11.11.22.22.11.44s-.11.22-.33.22h-.11l-1.98-.88-2.53,1.54,2.64,1.65,1.87-.77c.11-.11.33,0,.44.22s0,.33-.22.44l-1.43.55,1.43.88c.11.11.22.22.11.44h-.33l-1.43-.77.22,1.65c0,.11-.11.33-.22.33l-.33-.22-.33-2.2-2.53-1.54v2.97l1.65,1.32a.33.33,0,0,1,0,.44h-.44l-1.32-.99v1.43a.33.33,0,1,1-.66,0v-1.43l-1.21.99h-.44a.33.33,0,0,1,0-.44l1.65-1.32v-2.97l-2.75,1.65-.33,1.98c0,.11-.11.22-.33.22s-.33-.22-.22-.33l.22-1.54-1.32.77h-.33c-.11-.11,0-.33.11-.44l1.43-.88-1.54-.66q-.55,0-.33-.33m-12.65,0a.55.55,0,0,1,.44-.22l1.98.77,2.75-1.65L81.4,100.1l-1.98.88h-.11l-.33-.22c-.11-.11,0-.33.11-.44l1.65-.66-1.43-.88c-.11-.11-.22-.22-.11-.44s.22-.22.44-.11l1.32.77-.22-1.54c0-.11.11-.33.22-.33l.33.22.33,2.09,2.64,1.65V98.23l-1.65-1.32a.33.33,0,0,1,0-.44h.44l1.32.99V95.81a.33.33,0,0,1,.66,0v1.65l1.32-.99a.33.33,0,0,1,.33.55l-1.65,1.32v2.86l2.53-1.54.33-2.09c0-.11.22-.33.33-.22s.33.22.22.33l-.22,1.54,1.43-.88c.11-.11.33,0,.44.11s0,.33-.11.44l-1.54.99,1.54.66c.11.11.22.22.11.44s-.11.22-.33.22h-.11l-1.98-.88-2.53,1.54,2.64,1.65,1.87-.77c.11-.11.33,0,.44.22s0,.33-.22.44l-1.43.55,1.43.88c.11.11.22.22.11.44h-.33l-1.43-.77.22,1.65c0,.11-.11.33-.22.33l-.33-.22-.33-2.2-2.53-1.54v2.97l1.65,1.32a.33.33,0,0,1,0,.44h-.44l-1.32-.99v1.43a.33.33,0,1,1-.66,0v-1.43l-1.21.99h-.44a.33.33,0,0,1,0-.44l1.65-1.32v-2.97l-2.75,1.65-.33,1.98c0,.11-.11.22-.33.22s-.33-.22-.22-.33l.22-1.54-1.32.77H79.2c-.11-.11,0-.33.11-.44l1.43-.88-1.54-.77a.33.33,0,0,1-.33-.33M62.04,115.28a11.44,11.44,0,0,1,6.05,1.76v-33H28.16v38.39h2.09a11.22,11.22,0,0,1,10.45-7.15,11.44,11.44,0,0,1,10.56,7.15h.33a11.22,11.22,0,0,1,10.45-7.15M51.7,99.88l1.54.66c.11.11.22.22.11.44s-.11.22-.33.22h-.11l-1.98-.88-2.53,1.54,2.64,1.65,1.87-.77c.11-.11.33,0,.44.22s0,.33-.22.44l-1.43.55,1.43.88c.11.11.22.22.11.44h-.33l-1.43-.77.22,1.65c0,.11-.11.33-.22.33l-.33-.22-.33-2.2-2.53-1.54v2.97l1.65,1.32a.33.33,0,0,1,0,.44H49.5l-1.32-.99v1.43a.33.33,0,1,1-.66,0v-1.43l-1.21.99h-.44a.33.33,0,0,1,0-.44l1.65-1.32v-2.97l-2.75,1.65-.33,1.98c0,.11-.11.22-.33.22s-.33-.22-.22-.33l.22-1.54-1.32.77h-.33c-.11-.11,0-.33.11-.44l1.43-.88-1.54-.66a.348.348,0,1,1,.22-.66l1.98.77,2.75-1.65-2.64-1.65-1.98.88h-.11l-.33-.22c-.11-.11,0-.33.11-.44l1.65-.66-1.43-.88c-.11-.11-.22-.22-.11-.44s.22-.22.44-.11l1.32.77-.22-1.54c0-.11.11-.33.22-.33s.33.11.33.22l.33,2.09,2.64,1.65V98.12L45.98,96.8a.33.33,0,0,1,0-.44h.44l1.32.99V95.7a.33.33,0,1,1,.66,0v1.65l1.32-.99a.33.33,0,0,1,.33.55L48.4,98.23v2.86l2.53-1.54.33-2.09c0-.11.22-.33.33-.22s.33.22.22.33l-.22,1.54,1.43-.88c.11-.11.33,0,.44.11s0,.33-.11.44ZM32.34,127.93a8.25,8.25,0,1,0,8.25-8.14,8.03,8.03,0,0,0-8.25,8.14m4.29,0a3.96,3.96,0,1,1,3.96,3.96,3.96,3.96,0,0,1-3.96-3.96m1.32,0a2.53,2.53,0,1,0,2.53-2.53,2.53,2.53,0,0,0-2.53,2.53m15.62,0a8.25,8.25,0,1,0,8.25-8.14,8.25,8.25,0,0,0-8.25,8.14m4.29,0a3.96,3.96,0,1,1,3.96,3.96,3.96,3.96,0,0,1-3.96-3.96m1.43,0a2.53,2.53,0,1,0,2.53-2.53,2.53,2.53,0,0,0-2.53,2.53m49.72,38.94a9.57,9.57,0,0,0,.99,4.95,3.41,3.41,0,0,0,2.97,1.54c2.64,0,3.96-2.09,3.96-6.49s-1.32-6.49-3.96-6.49-3.96,2.2-3.96,6.49m35.86-30.8a8.14,8.14,0,1,0-8.25-8.14,8.25,8.25,0,0,0,8.25,8.14m0-4.18a3.96,3.96,0,1,1,3.96-3.96,3.96,3.96,0,0,1-3.96,3.96m0-1.43a2.53,2.53,0,1,0-2.53-2.53,2.53,2.53,0,0,0,2.53,2.53m19.03-2.53a8.25,8.25,0,1,0,8.25-8.14,8.03,8.03,0,0,0-8.25,8.14m4.29,0a3.96,3.96,0,1,1,3.96,3.96,3.96,3.96,0,0,1-3.96-3.96m1.43,0a2.53,2.53,0,1,0,2.53-2.53,2.53,2.53,0,0,0-2.53,2.53" fill="#fff"/>
    </g>
  </g>
</svg>
